G04 #@! TF.FileFunction,Soldermask,Top*
%FSLAX46Y46*%
G04 Gerber Fmt 4.6, Leading zero omitted, Abs format (unit mm)*
G04 Created by KiCad (PCBNEW (2016-01-20 BZR 6502, Git 4c1d9af)-product) date Mon 29 Feb 2016 08:28:28 AM EST*
%MOMM*%
G01*
G04 APERTURE LIST*
%ADD10C,0.100000*%
%ADD11C,0.150000*%
%ADD12R,1.470000X1.020000*%
%ADD13R,1.020000X1.470000*%
%ADD14R,1.320000X0.620000*%
%ADD15R,1.120000X1.970000*%
%ADD16R,1.670000X1.670000*%
%ADD17C,1.670000*%
%ADD18C,1.544000*%
%ADD19C,1.520000*%
%ADD20C,1.075599*%
%ADD21R,0.270000X0.620000*%
%ADD22R,0.620000X0.270000*%
%ADD23R,1.270000X0.620000*%
%ADD24R,0.320000X1.520000*%
%ADD25R,1.520000X0.320000*%
%ADD26R,0.820000X1.520000*%
%ADD27R,1.520000X0.820000*%
%ADD28R,2.520000X2.520000*%
%ADD29R,1.520000X3.520000*%
G04 APERTURE END LIST*
D10*
D11*
X150000000Y-100000000D02*
X150000000Y-50000000D01*
X100000000Y-100000000D02*
X150000000Y-100000000D01*
X100000000Y-50000000D02*
X100000000Y-100000000D01*
X100000000Y-50000000D02*
X150000000Y-50000000D01*
D12*
X109600000Y-79750000D03*
X109600000Y-77850000D03*
D13*
X138850000Y-83500000D03*
X140750000Y-83500000D03*
X104750000Y-82200000D03*
X102850000Y-82200000D03*
D12*
X125100000Y-54200000D03*
X125100000Y-52300000D03*
D13*
X113950000Y-92300000D03*
X112050000Y-92300000D03*
D12*
X101700000Y-79550000D03*
X101700000Y-77650000D03*
D13*
X110650000Y-84700000D03*
X112550000Y-84700000D03*
X120850000Y-84200000D03*
X122750000Y-84200000D03*
D12*
X135700000Y-66250000D03*
X135700000Y-64350000D03*
X119500000Y-76950000D03*
X119500000Y-75050000D03*
D13*
X135850000Y-73600000D03*
X137750000Y-73600000D03*
X121050000Y-62600000D03*
X122950000Y-62600000D03*
D12*
X129500000Y-79350000D03*
X129500000Y-81250000D03*
D14*
X118100000Y-92550000D03*
X118100000Y-90650000D03*
X116000000Y-91600000D03*
D12*
X127200000Y-96550000D03*
X127200000Y-98450000D03*
X124200000Y-96550000D03*
X124200000Y-98450000D03*
D14*
X118100000Y-88550000D03*
X118100000Y-86650000D03*
X116000000Y-87600000D03*
D12*
X121200000Y-96550000D03*
X121200000Y-98450000D03*
D15*
X117700000Y-84200000D03*
X114700000Y-84200000D03*
D16*
X101858000Y-92926000D03*
D17*
X101858000Y-95466000D03*
X101858000Y-98006000D03*
D16*
X106938000Y-98006000D03*
D17*
X106938000Y-95466000D03*
D16*
X104398000Y-92926000D03*
D17*
X104398000Y-95466000D03*
X104398000Y-98006000D03*
D12*
X110500000Y-57650000D03*
X110500000Y-55750000D03*
D13*
X103350000Y-73900000D03*
X101450000Y-73900000D03*
X119950000Y-52300000D03*
X118050000Y-52300000D03*
D12*
X112700000Y-55750000D03*
X112700000Y-57650000D03*
D13*
X101450000Y-66700000D03*
X103350000Y-66700000D03*
D12*
X114900000Y-57650000D03*
X114900000Y-55750000D03*
D13*
X103350000Y-64500000D03*
X101450000Y-64500000D03*
D12*
X117100000Y-57650000D03*
X117100000Y-55750000D03*
X119300000Y-55750000D03*
X119300000Y-57650000D03*
X121500000Y-57650000D03*
X121500000Y-55750000D03*
X128500000Y-57650000D03*
X128500000Y-55750000D03*
X127200000Y-92900000D03*
X127200000Y-94800000D03*
X130700000Y-55750000D03*
X130700000Y-57650000D03*
X124200000Y-92900000D03*
X124200000Y-94800000D03*
D13*
X124050000Y-57300000D03*
X125950000Y-57300000D03*
D12*
X132900000Y-57650000D03*
X132900000Y-55750000D03*
X107400000Y-84050000D03*
X107400000Y-85950000D03*
X107400000Y-87650000D03*
X107400000Y-89550000D03*
X135100000Y-57650000D03*
X135100000Y-55750000D03*
D13*
X146650000Y-73900000D03*
X148550000Y-73900000D03*
D12*
X121200000Y-92900000D03*
X121200000Y-94800000D03*
X137300000Y-55750000D03*
X137300000Y-57650000D03*
D13*
X148550000Y-64500000D03*
X146650000Y-64500000D03*
X129950000Y-52300000D03*
X131850000Y-52300000D03*
D12*
X139500000Y-57650000D03*
X139500000Y-55750000D03*
D13*
X146650000Y-66700000D03*
X148550000Y-66700000D03*
X102150000Y-89500000D03*
X104050000Y-89500000D03*
X104050000Y-87300000D03*
X102150000Y-87300000D03*
D12*
X113300000Y-80250000D03*
X113300000Y-78350000D03*
X115600000Y-80250000D03*
X115600000Y-78350000D03*
D18*
X112100000Y-94800000D03*
X114100000Y-94800000D03*
X116100000Y-94800000D03*
D19*
X110100000Y-97200000D03*
X118100000Y-97200000D03*
D20*
X101200000Y-71100000D03*
X102800000Y-71100000D03*
X102800000Y-69300000D03*
X101200000Y-69300000D03*
D21*
X104800000Y-77750000D03*
D22*
X104625000Y-78425000D03*
X104625000Y-78925000D03*
D21*
X104800000Y-79600000D03*
X105300000Y-79600000D03*
X105800000Y-79600000D03*
X106300000Y-79600000D03*
D22*
X106475000Y-78925000D03*
X106475000Y-78425000D03*
D21*
X106300000Y-77750000D03*
X105800000Y-77750000D03*
X105300000Y-77750000D03*
D23*
X110200000Y-87000000D03*
X110200000Y-87950000D03*
X110200000Y-88900000D03*
X112900000Y-88900000D03*
X112900000Y-87950000D03*
X112900000Y-87000000D03*
D20*
X147200000Y-71100000D03*
X148800000Y-71100000D03*
X148800000Y-69300000D03*
X147200000Y-69300000D03*
D16*
X107300000Y-72800000D03*
D17*
X109840000Y-72800000D03*
X107300000Y-70260000D03*
X109840000Y-70260000D03*
X107300000Y-67720000D03*
X109840000Y-67720000D03*
X107300000Y-65180000D03*
X109840000Y-65180000D03*
D24*
X123750000Y-76300000D03*
X124250000Y-76300000D03*
X124750000Y-76300000D03*
X125250000Y-76300000D03*
X125750000Y-76300000D03*
X126250000Y-76300000D03*
X126750000Y-76300000D03*
X127250000Y-76300000D03*
X127750000Y-76300000D03*
X128250000Y-76300000D03*
X128750000Y-76300000D03*
X129250000Y-76300000D03*
X129750000Y-76300000D03*
X130250000Y-76300000D03*
X130750000Y-76300000D03*
X131250000Y-76300000D03*
D25*
X133200000Y-74350000D03*
X133200000Y-73850000D03*
X133200000Y-73350000D03*
X133200000Y-72850000D03*
X133200000Y-72350000D03*
X133200000Y-71850000D03*
X133200000Y-71350000D03*
X133200000Y-70850000D03*
X133200000Y-70350000D03*
X133200000Y-69850000D03*
X133200000Y-69350000D03*
X133200000Y-68850000D03*
X133200000Y-68350000D03*
X133200000Y-67850000D03*
X133200000Y-67350000D03*
X133200000Y-66850000D03*
D24*
X131250000Y-64900000D03*
X130750000Y-64900000D03*
X130250000Y-64900000D03*
X129750000Y-64900000D03*
X129250000Y-64900000D03*
X128750000Y-64900000D03*
X128250000Y-64900000D03*
X127750000Y-64900000D03*
X127250000Y-64900000D03*
X126750000Y-64900000D03*
X126250000Y-64900000D03*
X125750000Y-64900000D03*
X125250000Y-64900000D03*
X124750000Y-64900000D03*
X124250000Y-64900000D03*
X123750000Y-64900000D03*
D25*
X121800000Y-66850000D03*
X121800000Y-67350000D03*
X121800000Y-67850000D03*
X121800000Y-68350000D03*
X121800000Y-68850000D03*
X121800000Y-69350000D03*
X121800000Y-69850000D03*
X121800000Y-70350000D03*
X121800000Y-70850000D03*
X121800000Y-71350000D03*
X121800000Y-71850000D03*
X121800000Y-72350000D03*
X121800000Y-72850000D03*
X121800000Y-73350000D03*
X121800000Y-73850000D03*
X121800000Y-74350000D03*
D26*
X141100000Y-86300000D03*
X139900000Y-86300000D03*
X138700000Y-86300000D03*
X137500000Y-86300000D03*
X136300000Y-86300000D03*
X135100000Y-86300000D03*
X133900000Y-86300000D03*
X132700000Y-86300000D03*
D27*
X130200000Y-89050000D03*
X130200000Y-90250000D03*
X130200000Y-91450000D03*
X130200000Y-92650000D03*
X130200000Y-93850000D03*
X130200000Y-95050000D03*
D26*
X132700000Y-97800000D03*
X133900000Y-97800000D03*
X135100000Y-97800000D03*
X136300000Y-97800000D03*
X137500000Y-97800000D03*
X138700000Y-97800000D03*
X139900000Y-97800000D03*
X141100000Y-97800000D03*
D28*
X130581000Y-86808000D03*
X130581000Y-97349000D03*
D29*
X122200000Y-52300000D03*
X113400000Y-52300000D03*
X127800000Y-52300000D03*
X136600000Y-52300000D03*
M02*
