M48
INCH,TZ
T10C0.015
T11C0.028
T12C0.039
T13C0.043
T14C0.059
%
T10
X039882Y-32362
X040472Y-33740
X040669Y-30984
X041249Y-33046
X041391Y-33389
X041457Y-30000
X041614Y-24291
X041654Y-23701
X041693Y-35276
X041752Y-33471
X041929Y-31890
X042126Y-29528
X042387Y-31247
X042439Y-24898
X042638Y-29843
X042850Y-34570
X043110Y-21220
X043150Y-20472
X043150Y-30118
X043543Y-29331
X043976Y-29291
X044370Y-30197
X045391Y-28998
X045394Y-29370
X045551Y-23425
X045787Y-21220
X045825Y-20144
X045866Y-20512
X046113Y-25709
X046113Y-26378
X046339Y-29921
X046386Y-32207
X046467Y-31610
X046643Y-25709
X046644Y-31942
X046654Y-26378
X046725Y-31345
X046744Y-28416
X046850Y-30866
X046908Y-35276
X046953Y-21260
X047323Y-21260
X047401Y-23064
X047756Y-35945
X048071Y-31131
X048375Y-21865
X048393Y-22588
X048421Y-25123
X048439Y-31164
X048672Y-20221
X048794Y-21439
X048858Y-33150
X049055Y-31142
X049567Y-23007
X049593Y-20059
X049882Y-23937
X050083Y-28495
X050157Y-27953
X050390Y-32524
X050439Y-27689
X050446Y-27308
X050669Y-36929
X050669Y-37441
X050669Y-39016
X050818Y-27441
X050840Y-30770
X050877Y-21199
X050984Y-32520
X051089Y-24168
X051131Y-23794
X051348Y-27441
X051417Y-27874
X051417Y-28268
X051417Y-33372
X051461Y-21216
X051539Y-32540
X051594Y-31260
X051908Y-35341
X051911Y-35711
X052165Y-37520
X052227Y-35022
X052402Y-34646
X052441Y-21220
X052598Y-20472
X053071Y-32283
X053189Y-26614
X053384Y-32481
X053425Y-24764
X053695Y-32282
X053790Y-23425
X053937Y-29803
X054134Y-32953
X054291Y-20591
X054320Y-23425
X054646Y-34685
X055236Y-21181
X055315Y-20433
X055315Y-25818
X055315Y-26348
X055551Y-34606
X055551Y-37795
X055945Y-32874
X056732Y-27283
X057190Y-25402
X057362Y-27638
T11
X039843Y-27283
X039843Y-27992
X040472Y-27283
X040472Y-27992
X057953Y-27283
X057953Y-27992
X058583Y-27283
X058583Y-27992
T12
X040102Y-36585
X040102Y-37585
X040102Y-38585
X041102Y-36585
X041102Y-37585
X041102Y-38585
X042102Y-37585
X042102Y-38585
X042244Y-25661
X042244Y-26661
X042244Y-27661
X042244Y-28661
X043244Y-25661
X043244Y-26661
X043244Y-27661
X043244Y-28661
T13
X044134Y-37323
X044921Y-37323
X045709Y-37323
T14
X043346Y-38268
X046496Y-38268
M30

