G04 #@! TF.FileFunction,Legend,Bot*
%FSLAX46Y46*%
G04 Gerber Fmt 4.6, Leading zero omitted, Abs format (unit mm)*
G04 Created by KiCad (PCBNEW (2016-01-20 BZR 6502, Git 4c1d9af)-product) date Mon 29 Feb 2016 08:28:28 AM EST*
%MOMM*%
G01*
G04 APERTURE LIST*
%ADD10C,0.100000*%
%ADD11C,0.150000*%
%ADD12C,0.250000*%
G04 APERTURE END LIST*
D10*
X104928572Y-65028571D02*
X104928572Y-65628571D01*
X105328572Y-65628571D02*
X105442858Y-65628571D01*
X105500000Y-65600000D01*
X105557143Y-65542857D01*
X105585715Y-65428571D01*
X105585715Y-65228571D01*
X105557143Y-65114286D01*
X105500000Y-65057143D01*
X105442858Y-65028571D01*
X105328572Y-65028571D01*
X105271429Y-65057143D01*
X105214286Y-65114286D01*
X105185715Y-65228571D01*
X105185715Y-65428571D01*
X105214286Y-65542857D01*
X105271429Y-65600000D01*
X105328572Y-65628571D01*
X105114285Y-67528571D02*
X104914285Y-67814286D01*
X104771428Y-67528571D02*
X104771428Y-68128571D01*
X105000000Y-68128571D01*
X105057142Y-68100000D01*
X105085714Y-68071429D01*
X105114285Y-68014286D01*
X105114285Y-67928571D01*
X105085714Y-67871429D01*
X105057142Y-67842857D01*
X105000000Y-67814286D01*
X104771428Y-67814286D01*
X105314285Y-68128571D02*
X105714285Y-67528571D01*
X105714285Y-68128571D02*
X105314285Y-67528571D01*
X102971429Y-70057143D02*
X103057143Y-70028571D01*
X103200000Y-70028571D01*
X103257143Y-70057143D01*
X103285714Y-70085714D01*
X103314286Y-70142857D01*
X103314286Y-70200000D01*
X103285714Y-70257143D01*
X103257143Y-70285714D01*
X103200000Y-70314286D01*
X103085714Y-70342857D01*
X103028572Y-70371429D01*
X103000000Y-70400000D01*
X102971429Y-70457143D01*
X102971429Y-70514286D01*
X103000000Y-70571429D01*
X103028572Y-70600000D01*
X103085714Y-70628571D01*
X103228572Y-70628571D01*
X103314286Y-70600000D01*
X103514286Y-70628571D02*
X103657143Y-70028571D01*
X103771429Y-70457143D01*
X103885715Y-70028571D01*
X104028572Y-70628571D01*
X104600000Y-70085714D02*
X104571429Y-70057143D01*
X104485715Y-70028571D01*
X104428572Y-70028571D01*
X104342857Y-70057143D01*
X104285715Y-70114286D01*
X104257143Y-70171429D01*
X104228572Y-70285714D01*
X104228572Y-70371429D01*
X104257143Y-70485714D01*
X104285715Y-70542857D01*
X104342857Y-70600000D01*
X104428572Y-70628571D01*
X104485715Y-70628571D01*
X104571429Y-70600000D01*
X104600000Y-70571429D01*
X105142857Y-70028571D02*
X104857143Y-70028571D01*
X104857143Y-70628571D01*
X105342857Y-70028571D02*
X105342857Y-70628571D01*
X105685714Y-70028571D02*
X105428571Y-70371429D01*
X105685714Y-70628571D02*
X105342857Y-70285714D01*
X104228570Y-73228571D02*
X104599999Y-73228571D01*
X104399999Y-73000000D01*
X104485713Y-73000000D01*
X104542856Y-72971429D01*
X104571427Y-72942857D01*
X104599999Y-72885714D01*
X104599999Y-72742857D01*
X104571427Y-72685714D01*
X104542856Y-72657143D01*
X104485713Y-72628571D01*
X104314285Y-72628571D01*
X104257142Y-72657143D01*
X104228570Y-72685714D01*
X104771428Y-73228571D02*
X104971428Y-72628571D01*
X105171428Y-73228571D01*
X105314285Y-73228571D02*
X105685714Y-73228571D01*
X105485714Y-73000000D01*
X105571428Y-73000000D01*
X105628571Y-72971429D01*
X105657142Y-72942857D01*
X105685714Y-72885714D01*
X105685714Y-72742857D01*
X105657142Y-72685714D01*
X105628571Y-72657143D01*
X105571428Y-72628571D01*
X105400000Y-72628571D01*
X105342857Y-72657143D01*
X105314285Y-72685714D01*
X111414286Y-72557143D02*
X111500000Y-72528571D01*
X111642857Y-72528571D01*
X111700000Y-72557143D01*
X111728571Y-72585714D01*
X111757143Y-72642857D01*
X111757143Y-72700000D01*
X111728571Y-72757143D01*
X111700000Y-72785714D01*
X111642857Y-72814286D01*
X111528571Y-72842857D01*
X111471429Y-72871429D01*
X111442857Y-72900000D01*
X111414286Y-72957143D01*
X111414286Y-73014286D01*
X111442857Y-73071429D01*
X111471429Y-73100000D01*
X111528571Y-73128571D01*
X111671429Y-73128571D01*
X111757143Y-73100000D01*
X111957143Y-73128571D02*
X112100000Y-72528571D01*
X112214286Y-72957143D01*
X112328572Y-72528571D01*
X112471429Y-73128571D01*
X112700000Y-72528571D02*
X112700000Y-73128571D01*
X112842857Y-73128571D01*
X112928572Y-73100000D01*
X112985714Y-73042857D01*
X113014286Y-72985714D01*
X113042857Y-72871429D01*
X113042857Y-72785714D01*
X113014286Y-72671429D01*
X112985714Y-72614286D01*
X112928572Y-72557143D01*
X112842857Y-72528571D01*
X112700000Y-72528571D01*
X113300000Y-72528571D02*
X113300000Y-73128571D01*
X113700000Y-73128571D02*
X113814286Y-73128571D01*
X113871428Y-73100000D01*
X113928571Y-73042857D01*
X113957143Y-72928571D01*
X113957143Y-72728571D01*
X113928571Y-72614286D01*
X113871428Y-72557143D01*
X113814286Y-72528571D01*
X113700000Y-72528571D01*
X113642857Y-72557143D01*
X113585714Y-72614286D01*
X113557143Y-72728571D01*
X113557143Y-72928571D01*
X113585714Y-73042857D01*
X113642857Y-73100000D01*
X113700000Y-73128571D01*
X111442857Y-70028571D02*
X111442857Y-70628571D01*
X111785714Y-70028571D01*
X111785714Y-70628571D01*
X112414285Y-70028571D02*
X112214285Y-70314286D01*
X112071428Y-70028571D02*
X112071428Y-70628571D01*
X112300000Y-70628571D01*
X112357142Y-70600000D01*
X112385714Y-70571429D01*
X112414285Y-70514286D01*
X112414285Y-70428571D01*
X112385714Y-70371429D01*
X112357142Y-70342857D01*
X112300000Y-70314286D01*
X112071428Y-70314286D01*
X112642857Y-70057143D02*
X112728571Y-70028571D01*
X112871428Y-70028571D01*
X112928571Y-70057143D01*
X112957142Y-70085714D01*
X112985714Y-70142857D01*
X112985714Y-70200000D01*
X112957142Y-70257143D01*
X112928571Y-70285714D01*
X112871428Y-70314286D01*
X112757142Y-70342857D01*
X112700000Y-70371429D01*
X112671428Y-70400000D01*
X112642857Y-70457143D01*
X112642857Y-70514286D01*
X112671428Y-70571429D01*
X112700000Y-70600000D01*
X112757142Y-70628571D01*
X112900000Y-70628571D01*
X112985714Y-70600000D01*
X113157143Y-70628571D02*
X113500000Y-70628571D01*
X113328571Y-70028571D02*
X113328571Y-70628571D01*
X111357143Y-68128571D02*
X111700000Y-68128571D01*
X111528571Y-67528571D02*
X111528571Y-68128571D01*
X111842857Y-68128571D02*
X112242857Y-67528571D01*
X112242857Y-68128571D02*
X111842857Y-67528571D01*
X111757143Y-65400000D02*
X111700000Y-65428571D01*
X111614286Y-65428571D01*
X111528571Y-65400000D01*
X111471429Y-65342857D01*
X111442857Y-65285714D01*
X111414286Y-65171429D01*
X111414286Y-65085714D01*
X111442857Y-64971429D01*
X111471429Y-64914286D01*
X111528571Y-64857143D01*
X111614286Y-64828571D01*
X111671429Y-64828571D01*
X111757143Y-64857143D01*
X111785714Y-64885714D01*
X111785714Y-65085714D01*
X111671429Y-65085714D01*
X112042857Y-64828571D02*
X112042857Y-65428571D01*
X112385714Y-64828571D01*
X112385714Y-65428571D01*
X112671428Y-64828571D02*
X112671428Y-65428571D01*
X112814285Y-65428571D01*
X112900000Y-65400000D01*
X112957142Y-65342857D01*
X112985714Y-65285714D01*
X113014285Y-65171429D01*
X113014285Y-65085714D01*
X112985714Y-64971429D01*
X112957142Y-64914286D01*
X112900000Y-64857143D01*
X112814285Y-64828571D01*
X112671428Y-64828571D01*
X137571429Y-56131429D02*
X137857143Y-56131429D01*
X137857143Y-55531429D01*
X137371429Y-56131429D02*
X137371429Y-55531429D01*
X137085715Y-56131429D02*
X137085715Y-55531429D01*
X136742858Y-56131429D01*
X136742858Y-55531429D01*
X136457144Y-55817143D02*
X136257144Y-55817143D01*
X136171430Y-56131429D02*
X136457144Y-56131429D01*
X136457144Y-55531429D01*
X136171430Y-55531429D01*
X137514286Y-57071429D02*
X137714286Y-56785714D01*
X137857143Y-57071429D02*
X137857143Y-56471429D01*
X137628571Y-56471429D01*
X137571429Y-56500000D01*
X137542857Y-56528571D01*
X137514286Y-56585714D01*
X137514286Y-56671429D01*
X137542857Y-56728571D01*
X137571429Y-56757143D01*
X137628571Y-56785714D01*
X137857143Y-56785714D01*
X137257143Y-57071429D02*
X137257143Y-56471429D01*
X136657143Y-56500000D02*
X136714286Y-56471429D01*
X136800000Y-56471429D01*
X136885715Y-56500000D01*
X136942857Y-56557143D01*
X136971429Y-56614286D01*
X137000000Y-56728571D01*
X137000000Y-56814286D01*
X136971429Y-56928571D01*
X136942857Y-56985714D01*
X136885715Y-57042857D01*
X136800000Y-57071429D01*
X136742857Y-57071429D01*
X136657143Y-57042857D01*
X136628572Y-57014286D01*
X136628572Y-56814286D01*
X136742857Y-56814286D01*
X136371429Y-57071429D02*
X136371429Y-56471429D01*
X136371429Y-56757143D02*
X136028572Y-56757143D01*
X136028572Y-57071429D02*
X136028572Y-56471429D01*
X135828572Y-56471429D02*
X135485715Y-56471429D01*
X135657144Y-57071429D02*
X135657144Y-56471429D01*
X137742857Y-57411429D02*
X137628571Y-57411429D01*
X137571429Y-57440000D01*
X137514286Y-57497143D01*
X137485714Y-57611429D01*
X137485714Y-57811429D01*
X137514286Y-57925714D01*
X137571429Y-57982857D01*
X137628571Y-58011429D01*
X137742857Y-58011429D01*
X137800000Y-57982857D01*
X137857143Y-57925714D01*
X137885714Y-57811429D01*
X137885714Y-57611429D01*
X137857143Y-57497143D01*
X137800000Y-57440000D01*
X137742857Y-57411429D01*
X137228572Y-57411429D02*
X137228572Y-57897143D01*
X137200000Y-57954286D01*
X137171429Y-57982857D01*
X137114286Y-58011429D01*
X137000000Y-58011429D01*
X136942858Y-57982857D01*
X136914286Y-57954286D01*
X136885715Y-57897143D01*
X136885715Y-57411429D01*
X136685715Y-57411429D02*
X136342858Y-57411429D01*
X136514287Y-58011429D02*
X136514287Y-57411429D01*
X130571429Y-56231429D02*
X130857143Y-56231429D01*
X130857143Y-55631429D01*
X130371429Y-56231429D02*
X130371429Y-55631429D01*
X130085715Y-56231429D02*
X130085715Y-55631429D01*
X129742858Y-56231429D01*
X129742858Y-55631429D01*
X129457144Y-55917143D02*
X129257144Y-55917143D01*
X129171430Y-56231429D02*
X129457144Y-56231429D01*
X129457144Y-55631429D01*
X129171430Y-55631429D01*
X130514286Y-57171429D02*
X130714286Y-56885714D01*
X130857143Y-57171429D02*
X130857143Y-56571429D01*
X130628571Y-56571429D01*
X130571429Y-56600000D01*
X130542857Y-56628571D01*
X130514286Y-56685714D01*
X130514286Y-56771429D01*
X130542857Y-56828571D01*
X130571429Y-56857143D01*
X130628571Y-56885714D01*
X130857143Y-56885714D01*
X130257143Y-57171429D02*
X130257143Y-56571429D01*
X129657143Y-56600000D02*
X129714286Y-56571429D01*
X129800000Y-56571429D01*
X129885715Y-56600000D01*
X129942857Y-56657143D01*
X129971429Y-56714286D01*
X130000000Y-56828571D01*
X130000000Y-56914286D01*
X129971429Y-57028571D01*
X129942857Y-57085714D01*
X129885715Y-57142857D01*
X129800000Y-57171429D01*
X129742857Y-57171429D01*
X129657143Y-57142857D01*
X129628572Y-57114286D01*
X129628572Y-56914286D01*
X129742857Y-56914286D01*
X129371429Y-57171429D02*
X129371429Y-56571429D01*
X129371429Y-56857143D02*
X129028572Y-56857143D01*
X129028572Y-57171429D02*
X129028572Y-56571429D01*
X128828572Y-56571429D02*
X128485715Y-56571429D01*
X128657144Y-57171429D02*
X128657144Y-56571429D01*
X130857143Y-58111429D02*
X130857143Y-57511429D01*
X130571429Y-58111429D02*
X130571429Y-57511429D01*
X130228572Y-58111429D01*
X130228572Y-57511429D01*
X120271429Y-56231429D02*
X120557143Y-56231429D01*
X120557143Y-55631429D01*
X120071429Y-56231429D02*
X120071429Y-55631429D01*
X119785715Y-56231429D02*
X119785715Y-55631429D01*
X119442858Y-56231429D01*
X119442858Y-55631429D01*
X119157144Y-55917143D02*
X118957144Y-55917143D01*
X118871430Y-56231429D02*
X119157144Y-56231429D01*
X119157144Y-55631429D01*
X118871430Y-55631429D01*
X120271429Y-57171429D02*
X120557143Y-57171429D01*
X120557143Y-56571429D01*
X120071429Y-56857143D02*
X119871429Y-56857143D01*
X119785715Y-57171429D02*
X120071429Y-57171429D01*
X120071429Y-56571429D01*
X119785715Y-56571429D01*
X119328572Y-56857143D02*
X119528572Y-56857143D01*
X119528572Y-57171429D02*
X119528572Y-56571429D01*
X119242858Y-56571429D01*
X119100000Y-56571429D02*
X118757143Y-56571429D01*
X118928572Y-57171429D02*
X118928572Y-56571429D01*
X120557143Y-58111429D02*
X120557143Y-57511429D01*
X120271429Y-58111429D02*
X120271429Y-57511429D01*
X119928572Y-58111429D01*
X119928572Y-57511429D01*
X113671429Y-56131429D02*
X113957143Y-56131429D01*
X113957143Y-55531429D01*
X113471429Y-56131429D02*
X113471429Y-55531429D01*
X113185715Y-56131429D02*
X113185715Y-55531429D01*
X112842858Y-56131429D01*
X112842858Y-55531429D01*
X112557144Y-55817143D02*
X112357144Y-55817143D01*
X112271430Y-56131429D02*
X112557144Y-56131429D01*
X112557144Y-55531429D01*
X112271430Y-55531429D01*
X113671429Y-57071429D02*
X113957143Y-57071429D01*
X113957143Y-56471429D01*
X113471429Y-56757143D02*
X113271429Y-56757143D01*
X113185715Y-57071429D02*
X113471429Y-57071429D01*
X113471429Y-56471429D01*
X113185715Y-56471429D01*
X112728572Y-56757143D02*
X112928572Y-56757143D01*
X112928572Y-57071429D02*
X112928572Y-56471429D01*
X112642858Y-56471429D01*
X112500000Y-56471429D02*
X112157143Y-56471429D01*
X112328572Y-57071429D02*
X112328572Y-56471429D01*
X113842857Y-57411429D02*
X113728571Y-57411429D01*
X113671429Y-57440000D01*
X113614286Y-57497143D01*
X113585714Y-57611429D01*
X113585714Y-57811429D01*
X113614286Y-57925714D01*
X113671429Y-57982857D01*
X113728571Y-58011429D01*
X113842857Y-58011429D01*
X113900000Y-57982857D01*
X113957143Y-57925714D01*
X113985714Y-57811429D01*
X113985714Y-57611429D01*
X113957143Y-57497143D01*
X113900000Y-57440000D01*
X113842857Y-57411429D01*
X113328572Y-57411429D02*
X113328572Y-57897143D01*
X113300000Y-57954286D01*
X113271429Y-57982857D01*
X113214286Y-58011429D01*
X113100000Y-58011429D01*
X113042858Y-57982857D01*
X113014286Y-57954286D01*
X112985715Y-57897143D01*
X112985715Y-57411429D01*
X112785715Y-57411429D02*
X112442858Y-57411429D01*
X112614287Y-58011429D02*
X112614287Y-57411429D01*
D11*
X150000000Y-100000000D02*
X150000000Y-50000000D01*
X100000000Y-100000000D02*
X150000000Y-100000000D01*
X100000000Y-50000000D02*
X100000000Y-100000000D01*
X100000000Y-50000000D02*
X150000000Y-50000000D01*
X124669000Y-55619000D02*
X125304000Y-55619000D01*
X124669000Y-56381000D02*
X125304000Y-56381000D01*
X126574000Y-56635000D02*
X126574000Y-55365000D01*
X111600000Y-54700000D02*
X111600000Y-51550000D01*
X114500000Y-54700000D02*
X111600000Y-54700000D01*
X114500000Y-51100000D02*
X114500000Y-54700000D01*
X112070000Y-51100000D02*
X114500000Y-51100000D01*
X111653000Y-51503000D02*
X112034000Y-51122000D01*
X118550000Y-54700000D02*
X118550000Y-51550000D01*
X121450000Y-54700000D02*
X118550000Y-54700000D01*
X121450000Y-51100000D02*
X121450000Y-54700000D01*
X119020000Y-51100000D02*
X121450000Y-51100000D01*
X118603000Y-51503000D02*
X118984000Y-51122000D01*
X123950000Y-53950000D02*
X123950000Y-51550000D01*
X125950000Y-53950000D02*
X123950000Y-53950000D01*
X125950000Y-51550000D02*
X125950000Y-53950000D01*
X123950000Y-51550000D02*
X125950000Y-51550000D01*
D12*
X123680000Y-54020000D02*
G75*
G03X123680000Y-54020000I-127000J0D01*
G01*
D11*
X128550000Y-54700000D02*
X128550000Y-51550000D01*
X131450000Y-54700000D02*
X128550000Y-54700000D01*
X131450000Y-51100000D02*
X131450000Y-54700000D01*
X129020000Y-51100000D02*
X131450000Y-51100000D01*
X128603000Y-51503000D02*
X128984000Y-51122000D01*
X135500000Y-54700000D02*
X135500000Y-51550000D01*
X138400000Y-54700000D02*
X135500000Y-54700000D01*
X138400000Y-51100000D02*
X138400000Y-54700000D01*
X135970000Y-51100000D02*
X138400000Y-51100000D01*
X135553000Y-51503000D02*
X135934000Y-51122000D01*
D10*
X111050000Y-74050000D02*
X111050000Y-63890000D01*
X111050000Y-63890000D02*
X106050000Y-63890000D01*
X106050000Y-63890000D02*
X106050000Y-74050000D01*
X106050000Y-74050000D02*
X111050000Y-74050000D01*
X125492857Y-57571429D02*
X125492857Y-56971429D01*
X125350000Y-56971429D01*
X125264285Y-57000000D01*
X125207143Y-57057143D01*
X125178571Y-57114286D01*
X125150000Y-57228571D01*
X125150000Y-57314286D01*
X125178571Y-57428571D01*
X125207143Y-57485714D01*
X125264285Y-57542857D01*
X125350000Y-57571429D01*
X125492857Y-57571429D01*
X124635714Y-57171429D02*
X124635714Y-57571429D01*
X124778571Y-56942857D02*
X124921428Y-57371429D01*
X124550000Y-57371429D01*
X109471429Y-52542857D02*
X109957143Y-52542857D01*
X110014286Y-52571429D01*
X110042857Y-52600000D01*
X110071429Y-52657143D01*
X110071429Y-52771429D01*
X110042857Y-52828571D01*
X110014286Y-52857143D01*
X109957143Y-52885714D01*
X109471429Y-52885714D01*
X110071429Y-53485714D02*
X110071429Y-53142857D01*
X110071429Y-53314285D02*
X109471429Y-53314285D01*
X109557143Y-53257142D01*
X109614286Y-53200000D01*
X109642857Y-53142857D01*
X118257143Y-54771429D02*
X118257143Y-55257143D01*
X118228571Y-55314286D01*
X118200000Y-55342857D01*
X118142857Y-55371429D01*
X118028571Y-55371429D01*
X117971429Y-55342857D01*
X117942857Y-55314286D01*
X117914286Y-55257143D01*
X117914286Y-54771429D01*
X117685715Y-54771429D02*
X117314286Y-54771429D01*
X117514286Y-55000000D01*
X117428572Y-55000000D01*
X117371429Y-55028571D01*
X117342858Y-55057143D01*
X117314286Y-55114286D01*
X117314286Y-55257143D01*
X117342858Y-55314286D01*
X117371429Y-55342857D01*
X117428572Y-55371429D01*
X117600000Y-55371429D01*
X117657143Y-55342857D01*
X117685715Y-55314286D01*
X125457143Y-54371429D02*
X125457143Y-54857143D01*
X125428571Y-54914286D01*
X125400000Y-54942857D01*
X125342857Y-54971429D01*
X125228571Y-54971429D01*
X125171429Y-54942857D01*
X125142857Y-54914286D01*
X125114286Y-54857143D01*
X125114286Y-54371429D01*
X124571429Y-54571429D02*
X124571429Y-54971429D01*
X124714286Y-54342857D02*
X124857143Y-54771429D01*
X124485715Y-54771429D01*
X132657143Y-54671429D02*
X132657143Y-55157143D01*
X132628571Y-55214286D01*
X132600000Y-55242857D01*
X132542857Y-55271429D01*
X132428571Y-55271429D01*
X132371429Y-55242857D01*
X132342857Y-55214286D01*
X132314286Y-55157143D01*
X132314286Y-54671429D01*
X132085715Y-54671429D02*
X131685715Y-54671429D01*
X131942858Y-55271429D01*
X139657143Y-54571429D02*
X139657143Y-55057143D01*
X139628571Y-55114286D01*
X139600000Y-55142857D01*
X139542857Y-55171429D01*
X139428571Y-55171429D01*
X139371429Y-55142857D01*
X139342857Y-55114286D01*
X139314286Y-55057143D01*
X139314286Y-54571429D01*
X139000000Y-55171429D02*
X138885715Y-55171429D01*
X138828572Y-55142857D01*
X138800000Y-55114286D01*
X138742858Y-55028571D01*
X138714286Y-54914286D01*
X138714286Y-54685714D01*
X138742858Y-54628571D01*
X138771429Y-54600000D01*
X138828572Y-54571429D01*
X138942858Y-54571429D01*
X139000000Y-54600000D01*
X139028572Y-54628571D01*
X139057143Y-54685714D01*
X139057143Y-54828571D01*
X139028572Y-54885714D01*
X139000000Y-54914286D01*
X138942858Y-54942857D01*
X138828572Y-54942857D01*
X138771429Y-54914286D01*
X138742858Y-54885714D01*
X138714286Y-54828571D01*
X110242857Y-63071429D02*
X110242857Y-63557143D01*
X110214285Y-63614286D01*
X110185714Y-63642857D01*
X110128571Y-63671429D01*
X110014285Y-63671429D01*
X109957143Y-63642857D01*
X109928571Y-63614286D01*
X109900000Y-63557143D01*
X109900000Y-63071429D01*
X109300000Y-63671429D02*
X109642857Y-63671429D01*
X109471429Y-63671429D02*
X109471429Y-63071429D01*
X109528572Y-63157143D01*
X109585714Y-63214286D01*
X109642857Y-63242857D01*
X108728571Y-63671429D02*
X109071428Y-63671429D01*
X108900000Y-63671429D02*
X108900000Y-63071429D01*
X108957143Y-63157143D01*
X109014285Y-63214286D01*
X109071428Y-63242857D01*
M02*
